HIERARCHY
ROOT joint_0
{
	OFFSET 0.000000 0.000000 0.000000
	CHANNELS 6 Xposition Yposition Zposition Zrotation Yrotation Xrotation 
	JOINT joint_1
	{
		OFFSET 11.612000 -0.419000 106.198000
		CHANNELS 3 Zrotation Yrotation Xrotation
		JOINT joint_2
		{
			OFFSET -1.708000 -1.022000 97.564090
			CHANNELS 3 Zrotation Yrotation Xrotation
			JOINT joint_3
			{
				OFFSET -4.121000 -1.538000 97.375000
				CHANNELS 3 Zrotation Yrotation Xrotation
				JOINT joint_4
				{
					OFFSET 5.442000 -2.123000 132.795900
					CHANNELS 3 Zrotation Yrotation Xrotation
					JOINT joint_5
					{
						OFFSET 21.935000 0.195000 82.975100
						CHANNELS 3 Zrotation Yrotation Xrotation
						End Site
						{
							OFFSET 0.000000 0.000000 0.000000
						}
					}
				}
				JOINT joint_6
				{
					OFFSET 4.262000 -30.048000 73.899900
					CHANNELS 3 Zrotation Yrotation Xrotation
					JOINT joint_7
					{
						OFFSET 9.731000 -136.810010 -21.963010
						CHANNELS 3 Zrotation Yrotation Xrotation
						JOINT joint_8
						{
							OFFSET 33.360000 -35.709000 -267.597900
							CHANNELS 3 Zrotation Yrotation Xrotation
							JOINT joint_9
							{
								OFFSET 36.156000 -29.759000 -240.558040
								CHANNELS 3 Zrotation Yrotation Xrotation
								End Site
								{
									OFFSET 0.000000 0.000000 0.000000
								}
							}
						}
					}
				}
				JOINT joint_10
				{
					OFFSET 2.027000 27.734000 74.914920
					CHANNELS 3 Zrotation Yrotation Xrotation
					JOINT joint_11
					{
						OFFSET -5.183000 136.784000 -23.604980
						CHANNELS 3 Zrotation Yrotation Xrotation
						JOINT joint_12
						{
							OFFSET 29.806000 37.229000 -267.809940
							CHANNELS 3 Zrotation Yrotation Xrotation
							JOINT joint_13
							{
								OFFSET 36.890000 46.524990 -237.772030
								CHANNELS 3 Zrotation Yrotation Xrotation
								End Site
								{
									OFFSET 0.000000 0.000000 0.000000
								}
							}
						}
					}
				}
			}
		}
	}
	JOINT joint_14
	{
		OFFSET -7.290000 -102.873990 -124.314940
		CHANNELS 3 Zrotation Yrotation Xrotation
		JOINT joint_15
		{
			OFFSET -15.466000 -19.909010 -438.533020
			CHANNELS 3 Zrotation Yrotation Xrotation
			JOINT joint_16
			{
				OFFSET -26.899000 -18.922000 -464.797000
				CHANNELS 3 Zrotation Yrotation Xrotation
				JOINT joint_17
				{
					OFFSET 179.329000 -12.011000 -84.174000
					CHANNELS 3 Zrotation Yrotation Xrotation
					End Site
					{
						OFFSET 0.000000 0.000000 0.000000
					}
				}
			}
		}
	}
	JOINT joint_18
	{
		OFFSET -6.225000 101.546000 -125.479980
		CHANNELS 3 Zrotation Yrotation Xrotation
		JOINT joint_19
		{
			OFFSET -13.973000 7.996000 -438.963010
			CHANNELS 3 Zrotation Yrotation Xrotation
			JOINT joint_20
			{
				OFFSET -44.294000 5.716000 -463.813970
				CHANNELS 3 Zrotation Yrotation Xrotation
				JOINT joint_21
				{
					OFFSET 178.505000 -4.689000 -85.139000
					CHANNELS 3 Zrotation Yrotation Xrotation
					End Site
					{
						OFFSET 0.000000 0.000000 0.000000
					}
				}
			}
		}
	}
}
MOTION
Frames: 12
Frame Time: 0.016667
167.515000 2.344000 1160.892940 4.345262 3.790407 0.818391 -0.316955 8.413459 0.355107 -0.557202 -1.583736 -0.071571 -0.520448 1.537499 -0.010206 -0.250552 6.044727 0.583682 0.000000 0.000000 0.000000 -2.460457 -3.737317 1.942813 0.758570 -4.324858 0.961757 1.320160 -8.467994 2.083804 0.000000 0.000000 0.000000 -1.236014 -2.329280 0.105759 -1.093705 -2.413787 -2.372210 -1.586794 -5.412475 -3.462712 0.000000 0.000000 0.000000 -0.412494 -5.930316 -3.477567 -1.667724 20.945873 3.459048 -0.390084 5.379986 0.199641 0.000000 0.000000 0.000000 1.100520 -1.939557 0.446775 1.355024 10.308296 0.309116 1.530086 7.695013 0.910936 0.000000 0.000000 0.000000 
173.518010 3.135000 1160.280030 4.215115 3.468486 0.952151 -0.218685 8.875564 -0.004354 -0.617223 -1.644743 0.029225 -0.602745 1.586142 -0.044790 -0.274790 5.988395 0.682578 0.000000 0.000000 0.000000 -2.520208 -3.810801 1.914305 0.788743 -4.401006 1.114761 1.288279 -8.503078 1.826082 0.000000 0.000000 0.000000 -1.288664 -2.358339 0.260303 -1.102245 -2.434410 -2.197752 -1.685355 -5.633405 -3.857019 0.000000 0.000000 0.000000 -0.175868 -7.959443 -4.369350 -1.617807 25.641526 4.461361 0.161708 5.588923 0.457694 0.000000 0.000000 0.000000 1.037716 -1.359785 0.381807 1.293657 10.578390 0.160418 1.482811 7.623077 0.883671 0.000000 0.000000 0.000000 
179.651000 3.499000 1159.119020 4.168034 3.239177 1.113483 -0.132517 9.184771 -0.367016 -0.747660 -1.661893 0.080670 -0.758927 1.614356 -0.073507 -0.306651 5.963588 0.812801 0.000000 0.000000 0.000000 -2.567134 -3.864130 1.979376 0.810352 -4.463500 1.212801 1.254234 -8.522949 1.554337 0.000000 0.000000 0.000000 -1.350270 -2.350180 0.440621 -1.089070 -2.409645 -1.933041 -1.772881 -5.811040 -4.248535 0.000000 0.000000 0.000000 -0.264150 -10.347332 -5.116128 -1.807391 30.651758 5.255343 0.428627 5.654907 0.579189 0.000000 0.000000 0.000000 1.021247 -0.824710 0.275738 1.269250 10.767673 0.054213 1.486468 7.401789 0.875197 0.000000 0.000000 0.000000 
185.907000 3.522000 1157.623050 4.205528 3.050940 1.344533 -0.061808 9.461229 -0.829401 -0.937060 -1.682516 0.156822 -0.980977 1.632670 -0.098240 -0.341355 5.953876 0.955622 0.000000 0.000000 0.000000 -2.612303 -3.898819 2.102245 0.825354 -4.513043 1.265058 1.219342 -8.524599 1.284418 0.000000 0.000000 0.000000 -1.412296 -2.322554 0.624784 -1.058544 -2.359493 -1.597004 -1.843261 -5.932671 -4.609496 0.000000 0.000000 0.000000 -0.569463 -12.894568 -5.811547 -2.086598 35.616987 5.813943 0.466407 5.766600 0.608021 0.000000 0.000000 0.000000 1.022838 -0.283972 0.090038 1.245498 10.870790 -0.012742 1.502921 7.127626 0.870356 0.000000 0.000000 0.000000 
192.574010 3.184000 1156.301030 4.368371 2.925054 1.594882 -0.067306 9.716937 -1.298477 -1.137165 -1.742749 0.269160 -1.211735 1.653482 -0.123115 -0.367144 5.967832 1.063106 0.000000 0.000000 0.000000 -2.680429 -3.891384 2.276351 0.823773 -4.532833 1.198018 1.192256 -8.477352 1.106398 0.000000 0.000000 0.000000 -1.435876 -2.317989 0.712227 -1.012108 -2.331213 -1.221773 -1.847929 -5.849145 -4.780839 0.000000 0.000000 0.000000 -0.906904 -14.986450 -6.404748 -2.305681 39.046028 6.076498 0.369878 5.526563 0.559321 0.000000 0.000000 0.000000 1.004885 0.244241 -0.102155 1.183978 10.849279 -0.038536 1.475054 6.984575 0.849481 0.000000 0.000000 0.000000 
199.735000 2.526000 1155.272950 4.631501 2.933437 1.790139 -0.181322 9.819717 -1.646641 -1.313247 -1.811987 0.372110 -1.405653 1.685235 -0.149799 -0.376515 6.029091 1.107732 0.000000 0.000000 0.000000 -2.794387 -3.838370 2.565942 0.792841 -4.533822 0.881717 1.186994 -8.372121 1.117828 0.000000 0.000000 0.000000 -1.384335 -2.363541 0.607980 -0.943618 -2.351284 -0.745637 -1.766939 -5.471029 -4.726460 0.000000 0.000000 0.000000 -1.134280 -16.504539 -6.882022 -2.417841 40.562012 6.183307 0.325271 4.385683 0.468192 0.000000 0.000000 0.000000 0.968460 0.711813 -0.218610 1.099296 10.653183 -0.028034 1.403415 6.982945 0.814306 0.000000 0.000000 0.000000 
207.307010 1.508000 1154.417970 4.924375 3.068298 1.927202 -0.362023 9.770828 -1.873036 -1.452608 -1.859944 0.442307 -1.549382 1.723119 -0.179419 -0.377099 6.114694 1.117978 0.000000 0.000000 0.000000 -2.929772 -3.745552 2.913847 0.743214 -4.507303 0.436232 1.188937 -8.214049 1.220576 0.000000 0.000000 0.000000 -1.297779 -2.436911 0.397530 -0.858418 -2.395909 -0.218533 -1.620298 -4.882622 -4.484124 0.000000 0.000000 0.000000 -1.311335 -17.735116 -7.218540 -2.520623 40.762918 6.136273 0.221774 2.625728 0.306636 0.000000 0.000000 0.000000 0.930127 1.106330 -0.248169 1.019723 10.339184 -0.007248 1.318567 7.071019 0.777020 0.000000 0.000000 0.000000 
215.338000 -0.009000 1153.875980 5.174284 3.266223 2.021603 -0.554488 9.702108 -2.002950 -1.520175 -1.875714 0.478544 -1.607675 1.757038 -0.204884 -0.376999 6.162041 1.118776 0.000000 0.000000 0.000000 -3.037052 -3.602745 3.125683 0.699581 -4.405880 0.165630 1.163455 -7.994642 1.209903 0.000000 0.000000 0.000000 -1.246626 -2.509400 0.243327 -0.775780 -2.441005 0.161939 -1.418759 -4.188708 -4.005525 0.000000 0.000000 0.000000 -1.511432 -18.738187 -7.335870 -2.721007 39.716782 5.768501 -0.191365 0.915008 0.015520 0.000000 0.000000 0.000000 0.884410 1.428435 -0.179519 0.949208 10.034618 -0.021030 1.224911 7.314796 0.741256 0.000000 0.000000 0.000000 
223.824010 -2.111000 1153.845950 5.397473 3.473556 2.104704 -0.770741 9.748366 -2.095911 -1.511733 -1.884313 0.508109 -1.576757 1.773337 -0.219295 -0.380772 6.130208 1.124860 0.000000 0.000000 0.000000 -3.093335 -3.391492 3.122221 0.669261 -4.195626 0.193165 1.100256 -7.735119 1.007239 0.000000 0.000000 0.000000 -1.275853 -2.575488 0.206675 -0.699103 -2.480319 0.292325 -1.140360 -3.378431 -3.172278 0.000000 0.000000 0.000000 -1.847229 -19.348902 -7.171522 -3.152334 36.907076 4.890579 -1.159613 -0.125298 -0.472700 0.000000 0.000000 0.000000 0.810556 1.730170 -0.032286 0.870356 9.725380 -0.079969 1.102204 7.815374 0.700523 0.000000 0.000000 0.000000 
232.769000 -4.712000 1154.129030 5.672578 3.682631 2.210641 -1.026636 9.893630 -2.194582 -1.467745 -1.912841 0.556790 -1.504496 1.777234 -0.228137 -0.384538 6.057191 1.123530 0.000000 0.000000 0.000000 -3.122450 -3.128001 3.003651 0.642660 -3.911405 0.378917 1.010366 -7.407558 0.694406 0.000000 0.000000 0.000000 -1.344315 -2.641772 0.210017 -0.617810 -2.518253 0.293622 -0.802863 -2.467986 -2.094342 0.000000 0.000000 0.000000 -2.288705 -19.487814 -6.840783 -3.727427 32.460624 3.699419 -2.332949 -0.451602 -1.020990 0.000000 0.000000 0.000000 0.691960 2.014108 0.139748 0.766879 9.417565 -0.150844 0.947481 8.515493 0.651279 0.000000 0.000000 0.000000 
242.231000 -7.692000 1154.271000 5.982646 3.922259 2.332339 -1.252383 9.997756 -2.251808 -1.404091 -1.928526 0.591852 -1.414430 1.786311 -0.239198 -0.385005 5.999171 1.101676 0.000000 0.000000 0.000000 -3.155917 -2.852132 2.842447 0.620365 -3.608944 0.637771 0.890193 -6.929099 0.301846 0.000000 0.000000 0.000000 -1.409805 -2.696232 0.217761 -0.533104 -2.544425 0.294782 -0.478655 -1.603116 -1.067136 0.000000 0.000000 0.000000 -2.660932 -19.396138 -6.493215 -4.187741 27.470091 2.573641 -3.171039 -0.576638 -1.426982 0.000000 0.000000 0.000000 0.549637 2.187015 0.322505 0.654801 9.271210 -0.216885 0.795375 9.227396 0.603713 0.000000 0.000000 0.000000 
252.238010 -10.967000 1154.312990 6.296370 4.267722 2.452646 -1.413821 9.941267 -2.209547 -1.311603 -1.891499 0.582786 -1.298277 1.807351 -0.262570 -0.379951 5.964875 1.050545 0.000000 0.000000 0.000000 -3.205026 -2.575749 2.649295 0.607627 -3.302602 0.981570 0.729538 -6.227478 -0.185677 0.000000 0.000000 0.000000 -1.471073 -2.741418 0.209460 -0.444323 -2.560285 0.316297 -0.173414 -0.782542 -0.126619 0.000000 0.000000 0.000000 -2.881971 -19.129176 -6.137762 -4.416587 21.846223 1.470313 -3.617999 -0.640556 -1.660550 0.000000 0.000000 0.000000 0.397758 2.166055 0.525545 0.540804 9.283658 -0.277556 0.651470 9.988942 0.562231 0.000000 0.000000 0.000000 
